#N canvas 300 76 151 323 10;
#X obj 9 -22 cnv 15 100 60 empty empty empty 20 12 0 14 -195568 -66577
0;
#N canvas 0 22 450 300 gemwin 0;
#X obj 132 136 gemwin;
#X obj 67 89 outlet;
#X obj 67 10 inlet;
#X msg 67 70 set destroy;
#X msg 132 112 create \, 1;
#X msg 198 112 destroy;
#X msg 156 71 set create;
#X obj 67 41 route create;
#X connect 2 0 7 0;
#X connect 3 0 1 0;
#X connect 4 0 0 0;
#X connect 5 0 0 0;
#X connect 6 0 1 0;
#X connect 7 0 3 0;
#X connect 7 0 4 0;
#X connect 7 1 6 0;
#X connect 7 1 5 0;
#X restore 14 17 pd gemwin;
#X msg 14 -2 create;
#X text 8 -27 Create window:;
#X obj 14 42 bng 25 250 50 0 empty empty empty 0 -6 0 8 -262144 -1
-1;
#X obj 80 36 bng 25 250 50 0 empty empty empty 0 -6 0 8 -262144 -1
-1;
#X obj -11 163 hsl 128 15 0 1 0 0 crossfader empty Crossfader -2 -8
0 10 -33289 -228856 -1 10800 1;
#X obj -14 199 hsl 128 15 0 1 0 0 blur empty blur -2 -8 0 10 -262144
-1 -1 9100 1;
#X obj -13 258 hsl 128 15 0 10 0 0 saturation empty saturation -2 -8
0 10 -262144 -1 -1 11300 1;
#X obj -13 228 hsl 128 15 0 4 0 0 contrast empty contrast -2 -8 0 10
-262144 -1 -1 10800 1;
#N canvas 0 22 454 525 engine.pd 0;
#X obj 18 32 inlet;
#X obj 319 13 inlet;
#X obj 105 408 outlet;
#X obj 30 63 gemhead;
#X obj 58 121 pix_film;
#X obj 71 327 pix_texture;
#X obj 73 375 rectangle 4 3;
#X msg 101 77 auto \$1;
#X obj 101 56 tgl 15 0 empty empty empty 17 7 0 10 -262144 -1 -1 1
1;
#X obj 99 4 openpanel;
#X msg 99 24 open \$1;
#X obj 68 350 scale 1.33;
#X obj 162 66 gemhead;
#X obj 190 124 pix_film;
#X msg 233 80 auto \$1;
#X obj 233 59 tgl 15 0 empty empty empty 17 7 0 10 -262144 -1 -1 1
1;
#X obj 231 7 openpanel;
#X msg 231 27 open \$1;
#X obj 105 222 pix_mix;
#X obj 156 220 receive crossfader;
#X obj 63 184 pix_resize;
#X msg 114 149 dimen 640 480;
#X obj 154 185 pix_resize;
#X obj 55 155 pix_rgba;
#X obj 206 159 pix_rgba;
#X obj 74 268 pix_motionblur;
#X obj 74 289 pix_contrast;
#X obj 178 243 receive blur;
#X obj 172 277 receive saturation;
#X obj 179 296 receive contrast;
#X obj 162 14 loadbang;
#X connect 0 0 9 0;
#X connect 1 0 16 0;
#X connect 3 0 4 0;
#X connect 4 0 23 0;
#X connect 5 0 11 0;
#X connect 6 0 2 0;
#X connect 7 0 4 0;
#X connect 8 0 7 0;
#X connect 9 0 10 0;
#X connect 10 0 4 0;
#X connect 11 0 6 0;
#X connect 12 0 13 0;
#X connect 13 0 24 0;
#X connect 14 0 13 0;
#X connect 15 0 14 0;
#X connect 16 0 17 0;
#X connect 17 0 13 0;
#X connect 18 0 25 0;
#X connect 19 0 18 2;
#X connect 20 0 18 0;
#X connect 21 0 20 0;
#X connect 21 0 22 0;
#X connect 22 0 18 1;
#X connect 23 0 20 0;
#X connect 24 0 22 0;
#X connect 25 0 26 0;
#X connect 26 0 5 0;
#X connect 27 0 25 1;
#X connect 28 0 26 2;
#X connect 29 0 26 1;
#X connect 30 0 8 0;
#X connect 30 0 15 0;
#X restore 26 103 pd engine.pd;
#X connect 1 0 2 0;
#X connect 2 0 1 0;
#X connect 4 0 10 0;
#X connect 5 0 10 1;
