#N canvas 438 31 613 675 10;
#X obj 174 334 pix_mix;
#X msg 126 207 auto \$1;
#X obj 126 187 tgl 15 0 empty empty empty 17 7 0 10 -262144 -1 -1 1
1;
#X msg 285 210 auto \$1;
#X obj 285 190 tgl 15 0 empty empty empty 17 7 0 10 -262144 -1 -1 1
1;
#X obj 93 72 gemhead;
#X obj 245 71 gemhead;
#X obj 415 298 hsl 128 30 0 1 0 1 empty empty Crossfader -2 -6 0 8
-99865 -1 -1 6700 1;
#X obj 174 404 pix_texture;
#X obj 174 448 pix_texture;
#X obj 174 469 rectangle 4 3;
#X obj 174 426 scale 1.33;
#X obj 371 115 cnv 15 100 60 empty empty empty 20 12 0 14 -195568 -66577
0;
#N canvas 177 444 450 300 gemwin 0;
#X obj 132 176 gemwin;
#X obj 67 89 outlet;
#X obj 67 10 inlet;
#X obj 67 41 route create;
#X msg 67 70 set destroy;
#X msg 142 68 set create;
#X msg 132 152 create \, 1;
#X msg 198 152 destroy;
#X msg 249 77 dimen 640 480;
#X obj 249 54 loadbang;
#X msg 252 111 reset;
#X msg 248 20 fullscreen \$1;
#X obj 248 -10 tgl 15 0 empty fullscreen empty 17 7 0 10 -262144 -1
-1 0 1;
#X connect 2 0 3 0;
#X connect 3 0 4 0;
#X connect 3 0 6 0;
#X connect 3 1 5 0;
#X connect 3 1 7 0;
#X connect 4 0 1 0;
#X connect 5 0 1 0;
#X connect 6 0 0 0;
#X connect 7 0 0 0;
#X connect 8 0 0 0;
#X connect 9 0 8 0;
#X connect 10 0 0 0;
#X connect 11 0 0 0;
#X connect 12 0 11 0;
#X restore 376 154 pd gemwin;
#X text 372 114 Create window:;
#X obj 123 105 bng 25 250 50 0 empty empty empty 0 -6 0 8 -262144 -1
-1;
#X obj 124 134 openpanel;
#X obj 275 102 bng 25 250 50 0 empty empty empty 0 -6 0 8 -262144 -1
-1;
#X obj 275 131 openpanel;
#X msg 124 154 open \$1;
#X msg 275 153 open \$1;
#X obj 202 131 loadbang;
#X obj 122 296 pix_resize;
#X msg 173 261 dimen 640 480;
#X obj 109 229 pix_film;
#X obj 268 232 pix_film;
#X obj 213 297 pix_resize;
#X obj 109 252 pix_rgba;
#X obj 268 255 pix_rgba;
#X obj 174 358 pix_motionblur;
#X obj 414 344 hsl 128 15 0 1 0 0 empty empty blur -2 -8 0 10 -262144
-1 -1 0 1;
#X obj 174 379 pix_contrast;
#X obj 415 403 hsl 128 15 0 10 0 0 empty empty saturation -2 -8 0 10
-262144 -1 -1 1270 1;
#X obj 414 373 hsl 128 15 0 4 0 0 empty empty contrast -2 -8 0 10 -262144
-1 -1 3175 1;
#X obj 369 73 tgl 30 0 fullscreen empty Fullscreen 30 20 0 20 -262144
-1 -1 0 1;
#X obj 360 236 1;
#X obj 379 193 bng 15 250 50 0 empty empty reset 17 7 0 10 -262144
-1 -1;
#X obj 397 235 0;
#X msg 376 136 destroy;
#X connect 0 0 29 0;
#X connect 1 0 24 0;
#X connect 2 0 1 0;
#X connect 3 0 25 0;
#X connect 4 0 3 0;
#X connect 5 0 24 0;
#X connect 6 0 25 0;
#X connect 7 0 0 2;
#X connect 8 0 11 0;
#X connect 9 0 10 0;
#X connect 11 0 9 0;
#X connect 13 0 38 0;
#X connect 15 0 16 0;
#X connect 16 0 19 0;
#X connect 17 0 18 0;
#X connect 18 0 20 0;
#X connect 19 0 24 0;
#X connect 20 0 25 0;
#X connect 21 0 2 0;
#X connect 21 0 4 0;
#X connect 21 0 23 0;
#X connect 21 0 35 0;
#X connect 21 0 37 0;
#X connect 22 0 0 0;
#X connect 23 0 22 0;
#X connect 23 0 26 0;
#X connect 24 0 27 0;
#X connect 25 0 28 0;
#X connect 26 0 0 1;
#X connect 27 0 22 0;
#X connect 28 0 26 0;
#X connect 29 0 31 0;
#X connect 30 0 29 1;
#X connect 31 0 8 0;
#X connect 32 0 31 2;
#X connect 33 0 31 1;
#X connect 35 0 33 0;
#X connect 35 0 32 0;
#X connect 36 0 35 0;
#X connect 36 0 37 0;
#X connect 37 0 30 0;
#X connect 37 0 7 0;
#X connect 38 0 13 0;
